<svg width="500" height="500" viewBox="0 0 500 500" fill="none" xmlns="http://www.w3.org/2000/svg">
<rect width="500" height="500" rx="250" fill="#FFF1E8"/>
<path d="M170.772 276.129C180.246 259.83 227.608 178.388 229.9 175.665C245.515 153.877 274.391 140.312 305.222 140.312C308.219 140.312 311.216 140.438 314.191 140.68C294.927 121.879 267.65 112.436 240.174 115.349C210.709 118.472 185.283 135.054 170.393 160.828L126.365 237.096C123.421 242.185 120.361 249.83 119.352 252.427C119.373 252.501 119.394 252.575 119.415 252.648C119.762 253.921 120.14 255.182 120.561 256.423C120.634 256.634 120.698 256.833 120.761 257.044C120.95 257.611 121.16 258.169 121.371 258.726C121.465 258.989 121.57 259.252 121.675 259.515C121.886 260.062 122.096 260.608 122.327 261.145C122.422 261.376 122.527 261.597 122.622 261.828C123.021 262.764 123.442 263.689 123.884 264.615C124.041 264.951 124.21 265.288 124.367 265.624C124.578 266.034 124.788 266.444 125.009 266.854C125.23 267.275 125.45 267.685 125.682 268.095C125.871 268.442 126.06 268.789 126.26 269.126C126.628 269.767 127.007 270.398 127.396 271.029C127.469 271.145 127.533 271.25 127.596 271.366C128.1 272.175 128.626 272.974 129.173 273.763C129.215 273.826 129.257 273.879 129.299 273.942C138.731 287.591 152.938 297.759 169.804 302.891C165.703 294.51 165.903 284.552 170.782 276.108L170.772 276.129Z" fill="url(#paint0_linear_27480_1568)"/>
<path d="M305.964 313.083H196.604L193.344 312.936C157.918 312.2 128.191 292.536 116.214 262.956C110.904 286.553 116.025 311.327 130.83 332.263C148.16 356.764 175.668 371.391 204.438 371.391H297.625C300.486 371.391 305.291 370.97 311.211 370.213C311.474 369.929 311.727 369.645 311.979 369.361C312.536 368.741 313.094 368.131 313.63 367.5C313.956 367.122 314.261 366.743 314.576 366.365C315.102 365.734 315.628 365.092 316.133 364.451C316.427 364.072 316.711 363.683 317.005 363.305C317.5 362.653 317.994 362.001 318.478 361.338C318.751 360.96 319.003 360.581 319.266 360.192C319.739 359.519 320.202 358.846 320.654 358.162C320.896 357.794 321.117 357.416 321.359 357.048C321.8 356.343 322.242 355.649 322.663 354.934C322.873 354.577 323.062 354.219 323.262 353.862C323.683 353.126 324.103 352.39 324.503 351.643C324.671 351.317 324.829 350.991 324.997 350.665C325.397 349.887 325.807 349.098 326.175 348.31C326.301 348.047 326.406 347.773 326.532 347.51C326.932 346.648 327.321 345.786 327.678 344.924C327.721 344.808 327.763 344.703 327.805 344.587C329.55 340.328 330.896 335.954 331.843 331.495C331.874 331.348 331.916 331.201 331.948 331.054C332.127 330.202 332.263 329.329 332.41 328.467C332.463 328.131 332.537 327.794 332.589 327.447C332.715 326.658 332.799 325.87 332.894 325.081C332.947 324.66 333.01 324.24 333.052 323.819C333.125 323.062 333.178 322.305 333.231 321.548C333.262 321.085 333.315 320.622 333.336 320.16C333.378 319.424 333.388 318.688 333.409 317.952C333.42 317.415 333.451 316.89 333.451 316.353V316.122C333.451 315.912 333.451 315.691 333.441 315.48C333.441 314.66 333.409 313.84 333.378 313.02C333.357 312.61 333.346 312.2 333.315 311.8C333.262 310.833 333.189 309.865 333.094 308.898C333.062 308.53 333.01 308.162 332.968 307.794C332.884 307.058 332.789 306.332 332.684 305.607C332.631 305.217 332.579 304.828 332.516 304.439C332.358 303.482 332.19 302.536 332 301.59C331.916 301.201 331.832 300.801 331.748 300.412C331.58 299.655 331.401 298.898 331.212 298.141C331.138 297.836 331.064 297.531 330.991 297.226C326.038 306.868 316.679 313.051 305.954 313.051L305.964 313.083Z" fill="url(#paint1_linear_27480_1568)"/>
<path d="M373.775 237.196L329.694 160.844C327.402 156.879 322.47 150.286 320.588 147.804C315.551 147.026 310.377 146.637 305.204 146.637C282.312 146.637 260.64 154.545 245.424 167.92C246.97 167.668 248.536 167.542 250.114 167.542C251.533 167.542 252.963 167.647 254.393 167.857C262.964 169.13 270.356 174.156 274.678 181.643L329.316 276.282C329.379 276.387 329.484 276.576 332.165 282.012L332.218 282.128L333.091 284.095C337.518 294.421 339.757 305.199 339.757 316.166C339.757 334.747 333.448 352.487 321.408 367.976C345.856 360.889 366.393 343.349 377.445 319.679C389.937 292.927 388.591 262.864 373.775 237.196Z" fill="url(#paint2_linear_27480_1568)"/>
<defs>
<linearGradient id="paint0_linear_27480_1568" x1="274.499" y1="124.671" x2="145.726" y2="288.549" gradientUnits="userSpaceOnUse">
<stop stop-color="#F4C844"/>
<stop offset="0.674233" stop-color="#C0662F"/>
<stop offset="1" stop-color="#A02B23"/>
</linearGradient>
<linearGradient id="paint1_linear_27480_1568" x1="133.751" y1="302.493" x2="346.35" y2="317.257" gradientUnits="userSpaceOnUse">
<stop stop-color="#F4C844"/>
<stop offset="0.534981" stop-color="#C0662F"/>
<stop offset="1" stop-color="#A02B23"/>
</linearGradient>
<linearGradient id="paint2_linear_27480_1568" x1="250.712" y1="152.23" x2="362.26" y2="350.885" gradientUnits="userSpaceOnUse">
<stop stop-color="#A02B23"/>
<stop offset="0.35596" stop-color="#C0662F"/>
<stop offset="1" stop-color="#F4C844"/>
</linearGradient>
</defs>
</svg>
